HIERARCHY
ROOT Hips
{
	OFFSET 0.00 0.00 0.00
	CHANNELS 6 Xposition Yposition Zposition Xrotation Yrotation Zrotation
	JOINT Spine
	{
		OFFSET 0.00000 7.50895 0.00000
		CHANNELS 3 Xrotation Yrotation Zrotation
		JOINT Head
		{
			OFFSET 0.00000 13.86115 0.00000
			CHANNELS 3 Xrotation Yrotation Zrotation
			End Site
			{
				OFFSET 0.00000 4.52755 0.00000
			}
		}
		JOINT LeftShoulder
		{
			OFFSET 0.00000 8.20478 0.00000
			CHANNELS 3 Xrotation Yrotation Zrotation
			JOINT LeftArm
			{
				OFFSET 6.63596 0.00000 0.00000
				CHANNELS 3 Xrotation Yrotation Zrotation
				JOINT LeftForeArm
				{
					OFFSET 10.27422 0.00000 0.00000
					CHANNELS 3 Yrotation Zrotation Xrotation
					JOINT LeftHand
					{
						OFFSET 8.52215 0.00000 0.00000
						CHANNELS 3 Xrotation Yrotation Zrotation
						JOINT LeftHandThumb1
						{
							OFFSET 0.00000 0.00000 0.00000
							CHANNELS 3 Xrotation Zrotation Yrotation
							End Site
							{
								OFFSET 0.00000 0.00000 3.93700
							}
						}
						End Site
						{
							OFFSET 3.93700 0.00000 0.00000
						}
					}
				}
			}
		}
		JOINT RightShoulder
		{
			OFFSET 0.00000 8.20478 0.00000
			CHANNELS 3 Xrotation Yrotation Zrotation
			JOINT RightArm
			{
				OFFSET -6.63596 0.00000 0.00000
				CHANNELS 3 Xrotation Yrotation Zrotation
				JOINT RightForeArm
				{
					OFFSET -10.27422 0.00000 0.00000
					CHANNELS 3 Yrotation Zrotation Xrotation
					JOINT RightHand
					{
						OFFSET -8.52215 0.00000 0.00000
						CHANNELS 3 Xrotation Yrotation Zrotation
						JOINT RightHandThumb1
						{
							OFFSET 0.00000 0.00000 0.00000
							CHANNELS 3 Xrotation Zrotation Yrotation
							End Site
							{
								OFFSET 0.00000 0.00000 3.93700
							}
						}
						End Site
						{
							OFFSET -3.93700 0.00000 0.00000
						}
					}
				}
			}
		}
	}
	JOINT LeftUpLeg
	{
		OFFSET 3.00056 0.00000 0.00000
		CHANNELS 3 Xrotation Yrotation Zrotation
		JOINT LeftLeg
		{
			OFFSET 0.00000 -16.49085 0.00000
			CHANNELS 3 Xrotation Yrotation Zrotation
			JOINT LeftFoot
			{
				OFFSET 0.00000 -14.55658 0.00000
				CHANNELS 3 Xrotation Yrotation Zrotation
				JOINT LeftToeBase
				{
					OFFSET 0.00000 -1.25038 4.66650
					CHANNELS 3 Xrotation Yrotation Zrotation
					End Site
					{
						OFFSET 0.00000 0.00000 2.95275
					}
				}
			}
		}
	}
	JOINT RightUpLeg
	{
		OFFSET -3.00056 0.00000 0.00000
		CHANNELS 3 Xrotation Yrotation Zrotation
		JOINT RightLeg
		{
			OFFSET 0.00000 -16.49085 0.00000
			CHANNELS 3 Xrotation Yrotation Zrotation
			JOINT RightFoot
			{
				OFFSET 0.00000 -14.55658 0.00000
				CHANNELS 3 Xrotation Yrotation Zrotation
				JOINT RightToeBase
				{
					OFFSET 0.00000 -1.25038 4.66650
					CHANNELS 3 Xrotation Yrotation Zrotation
					End Site
					{
						OFFSET 0.00000 0.00000 2.95275
					}
				}
			}
		}
	}
}
MOTION
Frames: 17
Frame Time: 0.008333
 -0.8815 33.1493 -2.2462 6.0344 5.3719 -1.0024 -13.1105 5.2641 0.7979 11.1355 -8.9358 9.6047 -19.7870 1.4989 43.1270 -110.7616 -12.5941 -28.7228 -112.7552 -0.0000 -58.2594 1.2461 9.1909 -7.7549 33.1476 -0.0000 26.2537 -55.5989 41.4029 -47.1602 -27.0732 1.2757 39.1038 77.3511 0.0000 -31.0948 0.0482 -0.2853 9.5963 32.8623 0.0000 -24.3270 0.5098 5.0498 1.6897 -0.9713 -0.0000 -0.0000 -7.6166 5.0398 -9.5705 9.9916 -0.0000 0.0000 0.1650 -7.5175 -0.1772 1.4276 0.0000 -0.0000 -7.5146 -3.0150 -0.7946 -0.9738 -0.0000 -0.0000
 -0.8789 33.1472 -2.2527 6.0896 5.3862 -1.0385 -13.1292 5.3482 0.8265 10.9694 -9.3154 9.8044 -19.3920 1.7511 42.9726 -110.5787 -11.8296 -28.1189 -111.5576 -0.0000 -57.9855 1.1783 9.4390 -7.1485 33.1476 -0.0000 26.2537 -55.1070 40.8138 -47.2817 -27.2461 0.9977 38.4817 76.2817 0.0000 -30.1055 0.0901 -0.5876 8.7181 32.8623 0.0000 -24.3270 0.4512 5.0727 1.7145 -0.9930 0.0000 0.0000 -7.6350 4.9955 -9.5710 9.9442 -0.0000 0.0000 0.1217 -7.5710 -0.1510 1.3924 0.0000 0.0000 -7.5029 -2.9753 -0.7896 -0.9061 0.0000 -0.0000
 -0.8757 33.1444 -2.2594 6.1412 5.4116 -1.0676 -13.1530 5.4513 0.8172 10.8101 -9.7953 10.0557 -19.0178 1.9769 42.8363 -110.4024 -11.0449 -27.6353 -110.3947 -0.0000 -57.7869 1.1440 9.9018 -6.6241 33.1476 -0.0000 26.2537 -54.2396 39.5492 -47.4610 -28.1418 1.0898 37.8299 75.0600 0.0000 -29.2191 0.1038 -0.7257 8.1397 32.8623 0.0000 -24.3270 0.3970 5.0737 1.7309 -1.0186 0.0000 0.0000 -7.6444 4.9681 -9.5446 9.9078 -0.0000 -0.0000 0.0739 -7.6603 -0.1355 1.3763 0.0000 0.0000 -7.5089 -2.9136 -0.7495 -0.9182 0.0000 -0.0000
 -0.8729 33.1431 -2.2670 6.1812 5.4368 -1.1154 -13.1674 5.5362 0.8471 10.7004 -10.2139 10.3185 -18.7361 2.0997 42.6690 -110.0997 -10.2688 -27.2018 -109.3098 -0.0000 -57.5784 1.0391 10.2323 -5.8300 33.1476 -0.0000 26.2537 -53.0628 37.9885 -47.7208 -29.3397 1.3052 37.0586 73.8733 0.0000 -28.6183 0.1152 -0.8538 7.6862 32.8623 0.0000 -24.3270 0.3525 5.0450 1.7671 -1.0447 0.0000 0.0000 -7.6679 4.9735 -9.5128 9.9305 0.0000 -0.0000 0.0483 -7.7463 -0.1000 1.3355 -0.0000 -0.0000 -7.4883 -2.8484 -0.6723 -0.8784 0.0000 0.0000
 -0.8735 33.1422 -2.2777 6.2196 5.4725 -1.1396 -13.1764 5.5920 0.8243 10.5457 -10.5387 10.5951 -18.4303 2.2311 42.4655 -109.8681 -9.5511 -26.8564 -108.1673 -0.0000 -57.4072 0.9684 10.3215 -5.3897 33.1476 -0.0000 26.2537 -52.0888 36.6385 -47.8321 -30.2331 1.4048 36.3583 72.7631 0.0000 -28.1566 0.1202 -0.9680 7.0809 32.8623 0.0000 -24.3270 0.2897 5.0018 1.7895 -1.0411 0.0000 0.0000 -7.6741 4.9654 -9.5205 9.9264 -0.0000 0.0000 0.0167 -7.7948 -0.0771 1.2954 -0.0000 0.0000 -7.4425 -2.8407 -0.6913 -1.0092 0.0000 -0.0000
 -0.8698 33.1417 -2.2857 6.2408 5.5073 -1.1644 -13.1863 5.6517 0.8124 10.3947 -10.8743 10.8514 -18.0442 2.3365 42.2314 -109.6950 -8.8589 -26.5215 -107.1057 -0.0000 -57.2308 0.9271 10.5524 -5.0495 33.1476 -0.0000 26.2537 -50.9074 35.0267 -47.9495 -31.3865 1.5947 35.6359 71.6774 0.0000 -27.9486 0.1299 -1.0866 6.8196 32.8623 0.0000 -24.3270 0.2565 4.9431 1.7992 -1.0407 0.0000 0.0000 -7.6885 5.0248 -9.5201 9.9160 0.0000 0.0000 0.0023 -7.8605 -0.0640 1.2677 -0.0000 0.0000 -7.4414 -2.8007 -0.6716 -0.9253 0.0000 -0.0000
 -0.8672 33.1418 -2.2977 6.2673 5.5595 -1.1957 -13.1984 5.6956 0.7926 10.2238 -11.2022 11.0981 -17.5924 2.4690 41.9875 -109.6427 -8.1881 -26.2500 -106.0530 -0.0000 -56.9742 0.8970 10.8325 -4.7623 33.1476 -0.0000 26.2537 -49.5052 33.1089 -48.0559 -32.8193 1.9657 34.8241 70.5864 0.0000 -27.8361 0.1436 -1.2706 6.4489 32.8623 0.0000 -24.3270 0.1968 4.8519 1.8292 -1.0299 0.0000 0.0000 -7.6911 5.0205 -9.4996 9.9289 -0.0000 0.0000 -0.0201 -7.8907 -0.0416 1.2362 0.0000 -0.0000 -7.4105 -2.8275 -0.6494 -0.8713 0.0000 -0.0000
 -0.8624 33.1420 -2.3053 6.2534 5.6032 -1.2164 -13.1804 5.7737 0.7762 10.0476 -11.4939 11.3310 -17.2925 2.4319 41.7946 -109.3591 -7.3958 -26.0254 -105.1516 -0.0000 -56.6379 0.8382 10.9931 -4.3872 33.1476 -0.0000 26.2537 -48.1966 31.4262 -48.1140 -33.9646 2.1294 34.0510 69.6235 0.0000 -27.6682 0.1292 -1.1492 6.4131 32.8623 0.0000 -24.3270 0.1948 4.7830 1.8423 -1.0332 -0.0000 -0.0000 -7.6969 5.0459 -9.4922 9.9638 0.0000 0.0000 0.0022 -7.9311 -0.0296 1.2063 -0.0000 -0.0000 -7.3773 -2.8295 -0.5984 -0.8735 -0.0000 0.0000
 -0.8576 33.1424 -2.3140 6.2308 5.6554 -1.2409 -13.1633 5.8260 0.7566 9.8604 -11.7689 11.5479 -17.6696 1.8946 41.7795 -108.2650 -6.2681 -25.9715 -104.4284 -0.0000 -56.0787 0.7916 11.3601 -4.0125 33.1476 -0.0000 26.2537 -46.9072 29.6421 -48.0594 -35.1016 2.4421 33.3105 68.6676 0.0000 -27.4913 0.1257 -1.1596 6.1857 32.8623 0.0000 -24.3270 0.1935 4.6895 1.8597 -1.0214 0.0000 0.0000 -7.6996 5.0769 -9.4751 9.9779 0.0000 0.0000 0.0222 -7.9782 -0.0144 1.1978 -0.0000 0.0000 -7.3520 -2.8289 -0.5766 -0.9188 -0.0000 0.0000
 -0.8535 33.1439 -2.3224 6.1825 5.7034 -1.2561 -13.1020 5.8636 0.7340 9.6738 -12.0395 11.7773 -17.5085 1.8145 41.6232 -107.9575 -5.3261 -25.9991 -103.6251 -0.0000 -55.3995 0.8041 11.6217 -3.9853 33.1476 -0.0000 26.2537 -45.6925 27.8808 -47.9559 -36.1821 2.7585 32.6668 67.7449 0.0000 -27.1276 0.1311 -1.1765 6.3602 32.8623 0.0000 -24.3270 0.2151 4.6129 1.8714 -1.0033 -0.0000 0.0000 -7.6935 5.1030 -9.4427 9.9172 -0.0000 0.0000 0.0613 -8.0234 -0.0037 1.2009 -0.0000 0.0000 -7.3206 -2.8312 -0.5798 -0.9818 -0.0000 -0.0000
 -0.8497 33.1449 -2.3307 6.1282 5.7523 -1.2757 -13.0488 5.8731 0.7408 9.4488 -12.2492 11.8418 -17.1653 1.8374 41.3773 -107.8221 -4.4771 -26.0331 -102.8363 -0.0000 -54.7519 0.8159 11.7351 -4.0055 33.1476 -0.0000 26.2537 -44.3975 26.0711 -47.7927 -37.3064 3.1594 32.0218 66.8710 0.0000 -26.7919 0.1338 -1.2903 5.9197 32.8623 0.0000 -24.3270 0.2408 4.5409 1.8917 -0.9832 -0.0000 -0.0000 -7.7041 5.1131 -9.4333 9.9623 -0.0000 -0.0000 0.0942 -8.0739 0.0079 1.2323 0.0000 0.0000 -7.3248 -2.8303 -0.5070 -0.8767 -0.0000 -0.0000
 -0.8438 33.1453 -2.3403 6.0755 5.7914 -1.2728 -12.9981 5.9167 0.7328 9.1814 -12.4898 11.8834 -16.8366 1.8377 41.1169 -107.6916 -3.6138 -26.1786 -102.0907 -0.0000 -54.0724 0.7628 11.8477 -3.7106 33.1476 -0.0000 26.2537 -43.0895 24.2932 -47.6042 -38.3256 3.5701 31.3819 66.0280 0.0000 -26.2898 0.1415 -1.4041 5.7557 32.8623 0.0000 -24.3270 0.2609 4.4828 1.8830 -0.9526 0.0000 -0.0000 -7.7106 5.1176 -9.3948 9.9466 0.0000 -0.0000 0.1319 -8.0394 -0.0001 1.2375 0.0000 0.0000 -7.3267 -2.9088 -0.5134 -0.8517 -0.0000 0.0000
 -0.8366 33.1500 -2.3488 6.0013 5.8335 -1.3034 -12.9031 5.9335 0.6830 8.9192 -12.6887 12.2486 -16.6370 1.8833 41.0349 -107.5602 -2.5927 -26.5945 -101.4939 -0.0000 -53.4895 0.6822 12.2230 -3.2188 33.1476 -0.0000 26.2537 -31.7732 8.9007 -46.0756 -56.3622 11.4009 28.9241 62.1529 0.0000 -26.9847 0.0932 -1.1208 4.7561 32.8623 0.0000 -24.3270 0.3062 4.4109 1.9083 -0.9327 -0.0000 -0.0000 -7.6778 5.1389 -9.3828 9.9355 -0.0000 -0.0000 0.1863 -8.0407 0.0246 1.2611 -0.0000 -0.0000 -7.2681 -2.9619 -0.5015 -0.8438 -0.0000 0.0000
 -0.8306 33.1547 -2.3578 5.8910 5.8806 -1.2849 -12.8382 5.9208 0.7508 8.7318 -12.8857 12.0090 -16.2707 1.8220 40.5957 -107.3936 -1.8293 -26.8464 -100.8021 -0.0000 -53.1194 0.4655 12.1991 -2.2020 33.1476 -0.0000 26.2537 -30.6471 6.8634 -45.3929 -57.6431 12.5442 29.0897 60.8195 0.0000 -26.5194 0.0909 -1.1557 4.4970 32.8623 0.0000 -24.3270 0.3822 4.3640 1.8908 -0.9010 -0.0000 0.0000 -7.6442 5.1504 -9.4080 9.9373 -0.0000 0.0000 0.2642 -8.0497 0.0029 1.2976 -0.0000 -0.0000 -7.2340 -2.9954 -0.4869 -0.8847 -0.0000 -0.0000
 -0.8226 33.1549 -2.3682 5.8244 5.9310 -1.2783 -12.8354 5.8894 0.7781 8.4696 -13.0323 11.9287 -15.9142 1.7573 40.3410 -107.2821 -0.8322 -27.2127 -100.2721 -0.0000 -52.8211 0.4267 12.8158 -1.9229 33.1476 -0.0000 26.2537 -30.5890 6.8903 -45.1325 -56.2128 12.2605 28.8686 60.3547 0.0000 -26.3740 0.1032 -1.4153 4.1711 32.8623 0.0000 -24.3270 0.4090 4.3105 1.8789 -0.8594 0.0000 0.0000 -7.6528 5.1250 -9.3695 9.9834 -0.0000 0.0000 0.2883 -8.0406 -0.0134 1.3573 0.0000 0.0000 -7.2634 -3.0707 -0.5254 -0.8468 -0.0000 -0.0000
 -0.8142 33.1553 -2.3788 5.7460 5.9742 -1.2673 -12.8133 5.8530 0.8024 8.2278 -13.1651 11.8092 -15.5510 1.7167 40.0606 -107.1539 0.0853 -27.6827 -99.7576 -0.0000 -52.0777 0.3853 13.0789 -1.7021 33.1476 -0.0000 26.2537 -30.5973 6.9914 -44.8680 -54.6896 11.9574 28.7496 59.9133 0.0000 -26.0527 0.1052 -1.4745 4.0805 32.8623 0.0000 -24.3270 0.4531 4.2297 1.8604 -0.8260 -0.0000 0.0000 -7.6638 5.1505 -9.3532 9.9622 0.0000 -0.0000 0.3162 -8.0458 -0.0338 1.4296 -0.0000 -0.0000 -7.2929 -3.1191 -0.5119 -0.8326 -0.0000 0.0000
 -0.8033 33.1568 -2.3877 5.6562 6.0139 -1.2480 -12.7927 5.7905 0.8239 8.0115 -13.2914 11.7386 -15.3188 1.6076 39.8454 -106.8096 1.0926 -28.2285 -99.3555 -0.0000 -51.3119 0.2548 13.2251 -1.1137 33.1476 -0.0000 26.2537 -30.6946 7.2014 -44.5425 -52.9966 11.7323 28.6745 59.4625 0.0000 -25.9509 0.1098 -1.5420 4.0750 32.8623 0.0000 -24.3270 0.5143 4.1841 1.8306 -0.7992 0.0000 0.0000 -7.6511 5.1506 -9.3379 9.9733 0.0000 -0.0000 0.3656 -8.0300 -0.0681 1.4923 0.0000 0.0000 -7.3258 -3.1959 -0.5653 -0.7462 0.0000 0.0000
